
      <svg data-logo="logo" xmlns="http://www.w3.org/2000/svg" viewBox="0 0 272 48">
        <g id="logogram" transform="translate(0, 3.5) rotate(0) "><path d="M18.529 14.2867C19.7573 13.9362 19.8794 10.5388 18.8016 6.69839C17.7239 2.85797 15.8544 0.0288177 14.6261 0.379292C13.3977 0.729766 13.2757 4.12714 14.3534 7.96759C15.4312 11.8079 17.3007 14.6371 18.529 14.2867Z" fill="black"/><path d="M26.1248 8.08707C27.2775 4.26882 27.2219 0.869674 26.0007 0.49485C24.7794 0.120017 22.855 2.91144 21.7023 6.72968C20.5497 10.5479 20.6052 13.9471 21.8265 14.3219C23.0477 14.6967 24.9722 11.9053 26.1248 8.08707Z" fill="black"/><path d="M15.7317 16.0579C16.5771 15.0934 14.858 12.1689 11.8921 9.5258C8.92614 6.88272 5.83646 5.52194 4.99109 6.48642C4.14571 7.45092 5.86478 10.3754 8.83075 13.0185C11.7967 15.6616 14.8864 17.0224 15.7317 16.0579Z" fill="black"/><path d="M31.5523 13.2463C34.5689 10.6622 36.3444 7.77208 35.5178 6.79115C34.6913 5.81019 31.5758 7.10985 28.5592 9.6939C25.5426 12.278 23.7672 15.1681 24.5937 16.1491C25.4202 17.13 28.5357 15.8304 31.5523 13.2463Z" fill="black"/><path d="M14.3271 19.0886C14.5213 17.8164 11.5072 16.2928 7.5951 15.6857C3.68285 15.0785 0.353953 15.6177 0.15976 16.8899C-0.0344332 18.1621 2.97961 19.6855 6.89183 20.2927C10.804 20.8999 14.1329 20.3607 14.3271 19.0886Z" fill="black"/><path d="M33.3469 20.5473C37.2702 20.018 40.3134 18.5548 40.1441 17.2789C39.9749 16.0031 36.6572 15.398 32.7338 15.9271C28.8106 16.4564 25.7673 17.9197 25.9366 19.1955C26.1059 20.4713 29.4235 21.0765 33.3469 20.5473Z" fill="black"/><path d="M9.1521 27.4532C12.7688 25.8311 15.28 23.5628 14.7611 22.3867C14.2424 21.2106 10.89 21.5722 7.2733 23.1943C3.65667 24.8164 1.1454 27.0847 1.66421 28.2608C2.18302 29.4369 5.53546 29.0753 9.1521 27.4532Z" fill="black"/><path d="M38.408 28.6255C38.9497 27.46 36.4833 25.1421 32.8991 23.4484C29.3149 21.7547 25.9702 21.3266 25.4285 22.4921C24.8868 23.6577 27.3532 25.9755 30.9374 27.6692C34.5215 29.3629 37.8663 29.7911 38.408 28.6255Z" fill="black"/><path d="M14.9029 32.2399C17.0755 28.9036 17.9717 25.6262 16.9047 24.9198C15.8375 24.2133 13.2112 26.3451 11.0387 29.6814C8.86604 33.0177 7.96985 36.2949 9.03689 37.0015C10.104 37.708 12.7302 35.5762 14.9029 32.2399Z" fill="black"/><path d="M30.8687 37.2253C31.9494 36.5402 31.1175 33.2456 29.0106 29.8668C26.9036 26.488 24.3195 24.3044 23.2388 24.9895C22.1582 25.6746 22.9901 28.9692 25.097 32.348C27.2039 35.7268 29.7881 37.9105 30.8687 37.2253Z" fill="black"/><path d="M22.3061 33.1463C22.3448 29.1553 21.3414 25.9098 20.0649 25.8972C18.7884 25.8846 17.7222 29.1098 17.6835 33.1007C17.6448 37.0918 18.6483 40.3374 19.9247 40.3499C21.2013 40.3625 22.2675 37.1374 22.3061 33.1463Z" fill="black"/></g>
        <g id="logotype" transform="translate(47, 8.5)"><path fill="#111111" d="M13.14 26L8.41 26L8.41 1.50L14.05 1.50L21.54 16.80L21.54 16.80L28.96 1.50L34.59 1.50L34.59 26L29.87 26L29.87 9.55L29.87 9.55L23.40 22.57L19.65 22.57L13.14 9.55L13.14 9.55L13.14 26ZM45.94 26.42L45.94 26.42Q43.28 26.42 41.23 25.28Q39.18 24.14 38.04 22.10Q36.91 20.05 36.91 17.35L36.91 17.35Q36.91 14.59 38.04 12.47Q39.18 10.35 41.21 9.15Q43.24 7.94 45.94 7.94L45.94 7.94Q48.56 7.94 50.52 9.09Q52.48 10.25 53.57 12.21Q54.65 14.17 54.65 16.66L54.65 16.66Q54.65 17.00 54.65 17.44Q54.65 17.88 54.58 18.34L54.58 18.34L40.27 18.34L40.27 15.46L49.89 15.46Q49.79 13.75 48.68 12.77Q47.58 11.79 45.94 11.79L45.94 11.79Q44.75 11.79 43.73 12.33Q42.72 12.87 42.14 13.99Q41.56 15.11 41.56 16.83L41.56 16.83L41.56 17.84Q41.56 19.28 42.10 20.35Q42.65 21.41 43.63 21.99Q44.61 22.57 45.90 22.57L45.90 22.57Q47.20 22.57 48.05 22.01Q48.91 21.45 49.33 20.57L49.33 20.57L54.16 20.57Q53.67 22.22 52.52 23.55Q51.36 24.88 49.68 25.65Q48.00 26.42 45.94 26.42ZM64.52 26.42L64.52 26.42Q62.11 26.42 60.20 25.23Q58.29 24.04 57.21 21.94Q56.12 19.84 56.12 17.21L56.12 17.21Q56.12 14.52 57.22 12.44Q58.33 10.35 60.27 9.15Q62.21 7.94 64.63 7.94L64.63 7.94Q66.52 7.94 67.95 8.64Q69.39 9.34 70.26 10.63L70.26 10.63L70.26 0.80L74.99 0.80L74.99 26L70.79 26L70.26 23.59L70.26 23.59Q69.74 24.32 68.95 24.98Q68.16 25.65 67.08 26.04Q65.99 26.42 64.52 26.42ZM65.64 22.29L65.64 22.29Q67.04 22.29 68.11 21.64Q69.18 20.99 69.77 19.84Q70.37 18.68 70.37 17.18L70.37 17.18Q70.37 15.67 69.77 14.52Q69.18 13.36 68.11 12.72Q67.04 12.07 65.64 12.07L65.64 12.07Q64.31 12.07 63.23 12.72Q62.14 13.36 61.53 14.52Q60.92 15.67 60.92 17.14L60.92 17.14Q60.92 18.68 61.53 19.84Q62.14 20.99 63.21 21.64Q64.28 22.29 65.64 22.29ZM82.58 26L77.86 26L77.86 8.36L82.58 8.36L82.58 26ZM80.24 5.94L80.24 5.94Q78.98 5.94 78.15 5.19Q77.33 4.44 77.33 3.28L77.33 3.28Q77.33 2.13 78.15 1.38Q78.98 0.62 80.24 0.62L80.24 0.62Q81.53 0.62 82.35 1.38Q83.18 2.13 83.18 3.28L83.18 3.28Q83.18 4.44 82.35 5.19Q81.53 5.94 80.24 5.94ZM102.95 26.42L102.95 26.42Q99.28 26.42 96.63 24.83Q93.99 23.23 92.57 20.38Q91.16 17.53 91.16 13.78L91.16 13.78Q91.16 10.04 92.57 7.17Q93.99 4.30 96.63 2.69Q99.28 1.08 102.95 1.08L102.95 1.08Q107.40 1.08 110.23 3.28Q113.06 5.49 113.77 9.51L113.77 9.51L108.62 9.51Q108.17 7.55 106.71 6.45Q105.26 5.35 102.92 5.35L102.92 5.35Q100.75 5.35 99.19 6.38Q97.63 7.41 96.79 9.29Q95.95 11.16 95.95 13.78L95.95 13.78Q95.95 16.38 96.79 18.27Q97.63 20.16 99.19 21.17Q100.75 22.18 102.92 22.18L102.92 22.18Q105.26 22.18 106.70 21.15Q108.13 20.12 108.59 18.27L108.59 18.27L113.77 18.27Q113.06 22.08 110.23 24.25Q107.40 26.42 102.95 26.42ZM124.16 26.42L124.16 26.42Q121.64 26.42 119.63 25.25Q117.61 24.07 116.44 21.99Q115.27 19.91 115.27 17.21L115.27 17.21Q115.27 14.45 116.44 12.37Q117.61 10.28 119.64 9.11Q121.67 7.94 124.19 7.94L124.19 7.94Q126.75 7.94 128.76 9.11Q130.78 10.28 131.95 12.37Q133.12 14.45 133.12 17.18L133.12 17.18Q133.12 19.91 131.95 21.99Q130.78 24.07 128.75 25.25Q126.72 26.42 124.16 26.42ZM124.16 22.32L124.16 22.32Q125.35 22.32 126.28 21.77Q127.20 21.20 127.75 20.05Q128.29 18.89 128.29 17.18L128.29 17.18Q128.29 15.46 127.75 14.33Q127.20 13.19 126.28 12.61Q125.35 12.03 124.19 12.03L124.19 12.03Q123.08 12.03 122.13 12.61Q121.19 13.19 120.64 14.33Q120.10 15.46 120.10 17.18L120.10 17.18Q120.10 18.89 120.64 20.05Q121.19 21.20 122.11 21.77Q123.04 22.32 124.16 22.32ZM140.05 26L135.33 26L135.33 8.36L139.49 8.36L139.84 11.23L139.84 11.23Q140.65 9.76 142.13 8.85Q143.62 7.94 145.69 7.94L145.69 7.94Q147.89 7.94 149.40 8.85Q150.90 9.76 151.69 11.51Q152.48 13.26 152.48 15.81L152.48 15.81L152.48 26L147.79 26L147.79 16.27Q147.79 14.17 146.89 13.05Q146.00 11.93 144.15 11.93L144.15 11.93Q142.96 11.93 142.03 12.49Q141.10 13.05 140.58 14.08Q140.05 15.11 140.05 16.59L140.05 16.59L140.05 26ZM159.79 26L155.07 26L155.07 8.36L159.23 8.36L159.58 11.23L159.58 11.23Q160.39 9.76 161.87 8.85Q163.36 7.94 165.43 7.94L165.43 7.94Q167.63 7.94 169.14 8.85Q170.64 9.76 171.43 11.51Q172.22 13.26 172.22 15.81L172.22 15.81L172.22 26L167.53 26L167.53 16.27Q167.53 14.17 166.63 13.05Q165.74 11.93 163.89 11.93L163.89 11.93Q162.70 11.93 161.77 12.49Q160.84 13.05 160.32 14.08Q159.79 15.11 159.79 16.59L159.79 16.59L159.79 26ZM183.28 26.42L183.28 26.42Q180.62 26.42 178.57 25.28Q176.52 24.14 175.38 22.10Q174.25 20.05 174.25 17.35L174.25 17.35Q174.25 14.59 175.38 12.47Q176.52 10.35 178.55 9.15Q180.58 7.94 183.28 7.94L183.28 7.94Q185.90 7.94 187.86 9.09Q189.82 10.25 190.91 12.21Q191.99 14.17 191.99 16.66L191.99 16.66Q191.99 17.00 191.99 17.44Q191.99 17.88 191.92 18.34L191.92 18.34L177.61 18.34L177.61 15.46L187.23 15.46Q187.13 13.75 186.02 12.77Q184.92 11.79 183.28 11.79L183.28 11.79Q182.09 11.79 181.07 12.33Q180.06 12.87 179.48 13.99Q178.90 15.11 178.90 16.83L178.90 16.83L178.90 17.84Q178.90 19.28 179.44 20.35Q179.99 21.41 180.97 21.99Q181.95 22.57 183.24 22.57L183.24 22.57Q184.54 22.57 185.39 22.01Q186.25 21.45 186.67 20.57L186.67 20.57L191.50 20.57Q191.01 22.22 189.86 23.55Q188.70 24.88 187.02 25.65Q185.34 26.42 183.28 26.42ZM202.56 26.42L202.56 26.42Q199.90 26.42 197.84 25.23Q195.77 24.04 194.62 21.98Q193.46 19.91 193.46 17.25L193.46 17.25Q193.46 14.52 194.62 12.44Q195.77 10.35 197.84 9.15Q199.90 7.94 202.56 7.94L202.56 7.94Q205.96 7.94 208.27 9.72Q210.58 11.51 211.21 14.62L211.21 14.62L206.20 14.62Q205.89 13.40 204.89 12.70Q203.89 12.00 202.53 12.00L202.53 12.00Q201.30 12.00 200.34 12.61Q199.38 13.22 198.83 14.40Q198.29 15.57 198.29 17.18L198.29 17.18Q198.29 18.41 198.61 19.37Q198.92 20.33 199.48 21.01Q200.04 21.70 200.83 22.04Q201.62 22.39 202.53 22.39L202.53 22.39Q203.44 22.39 204.19 22.08Q204.94 21.77 205.47 21.19Q205.99 20.61 206.20 19.77L206.20 19.77L211.21 19.77Q210.58 22.81 208.25 24.62Q205.92 26.42 202.56 26.42ZM224.33 26L221.15 26Q219.29 26 217.91 25.42Q216.53 24.84 215.76 23.50Q214.99 22.15 214.99 19.80L214.99 19.80L214.99 12.31L211.98 12.31L211.98 8.36L214.99 8.36L215.51 3.56L219.71 3.56L219.71 8.36L224.37 8.36L224.37 12.31L219.71 12.31L219.71 19.88Q219.71 21.06 220.24 21.52Q220.76 21.98 222.02 21.98L222.02 21.98L224.33 21.98L224.33 26Z"/></g>
        
      </svg>
    